G04 #@! TF.GenerationSoftware,KiCad,Pcbnew,5.1.4+dfsg1-1*
G04 #@! TF.CreationDate,2020-04-23T19:25:43-06:00*
G04 #@! TF.ProjectId,low-voltage,6c6f772d-766f-46c7-9461-67652e6b6963,rev?*
G04 #@! TF.SameCoordinates,Original*
G04 #@! TF.FileFunction,Legend,Bot*
G04 #@! TF.FilePolarity,Positive*
%FSLAX46Y46*%
G04 Gerber Fmt 4.6, Leading zero omitted, Abs format (unit mm)*
G04 Created by KiCad (PCBNEW 5.1.4+dfsg1-1) date 2020-04-23 19:25:43*
%MOMM*%
%LPD*%
G04 APERTURE LIST*
%ADD10C,0.120000*%
%ADD11C,0.150000*%
G04 APERTURE END LIST*
D10*
X116400000Y-73536000D02*
X139260000Y-73536000D01*
X112590000Y-73536000D02*
X89730000Y-73536000D01*
X116400000Y-74070000D02*
X116400000Y-73536000D01*
X112590000Y-74070000D02*
X112590000Y-73536000D01*
X139260000Y-74070000D02*
X116400000Y-74070000D01*
X89730000Y-74070000D02*
X112590000Y-74070000D01*
X141500000Y-58850000D02*
X141500000Y-109050000D01*
X88300000Y-58850000D02*
X141500000Y-58850000D01*
X88300000Y-109050000D02*
X88300000Y-58850000D01*
X141500000Y-109050000D02*
X88300000Y-109050000D01*
X116400000Y-84966000D02*
X139260000Y-84966000D01*
X116400000Y-85474000D02*
X116400000Y-84966000D01*
X139260000Y-85474000D02*
X116400000Y-85474000D01*
X112590000Y-84966000D02*
X89730000Y-84966000D01*
X112590000Y-85474000D02*
X112590000Y-84966000D01*
X89730000Y-85474000D02*
X112590000Y-85474000D01*
X123766000Y-82045000D02*
X123766000Y-80775000D01*
X105986000Y-82045000D02*
X123766000Y-82045000D01*
X105986000Y-80775000D02*
X105986000Y-82045000D01*
X104716000Y-80775000D02*
X105986000Y-80775000D01*
X104716000Y-78235000D02*
X104716000Y-80775000D01*
X105986000Y-78235000D02*
X104716000Y-78235000D01*
X105986000Y-76965000D02*
X105986000Y-78235000D01*
X123766000Y-76965000D02*
X105986000Y-76965000D01*
X123766000Y-80775000D02*
X123766000Y-76965000D01*
X123766000Y-80775000D02*
X123766000Y-76965000D01*
X123766000Y-76965000D02*
X105986000Y-76965000D01*
X105986000Y-76965000D02*
X105986000Y-78235000D01*
X105986000Y-78235000D02*
X104716000Y-78235000D01*
X104716000Y-78235000D02*
X104716000Y-80775000D01*
X104716000Y-80775000D02*
X105986000Y-80775000D01*
X105986000Y-80775000D02*
X105986000Y-82045000D01*
X105986000Y-82045000D02*
X123766000Y-82045000D01*
X123766000Y-82045000D02*
X123766000Y-80775000D01*
X124020000Y-105540000D02*
X124020000Y-104270000D01*
X106240000Y-105540000D02*
X124020000Y-105540000D01*
X106240000Y-104270000D02*
X106240000Y-105540000D01*
X104970000Y-104270000D02*
X106240000Y-104270000D01*
X104970000Y-101730000D02*
X104970000Y-104270000D01*
X106240000Y-101730000D02*
X104970000Y-101730000D01*
X106240000Y-100460000D02*
X106240000Y-101730000D01*
X124020000Y-100460000D02*
X106240000Y-100460000D01*
X124020000Y-104270000D02*
X124020000Y-100460000D01*
X89730000Y-85220000D02*
X89730000Y-59829500D01*
X139260000Y-85220000D02*
X139260000Y-59829500D01*
X104970000Y-87760000D02*
X104970000Y-92840000D01*
X104970000Y-92840000D02*
X122750000Y-92840000D01*
X122750000Y-92840000D02*
X122750000Y-91570000D01*
X122750000Y-91570000D02*
X124020000Y-91570000D01*
X124020000Y-91570000D02*
X124020000Y-89030000D01*
X124020000Y-89030000D02*
X122750000Y-89030000D01*
X122750000Y-89030000D02*
X122750000Y-87760000D01*
X122750000Y-87760000D02*
X104970000Y-87760000D01*
X124020000Y-104270000D02*
X124020000Y-100460000D01*
X124020000Y-100460000D02*
X106240000Y-100460000D01*
X106240000Y-100460000D02*
X106240000Y-101730000D01*
X106240000Y-101730000D02*
X104970000Y-101730000D01*
X104970000Y-101730000D02*
X104970000Y-104270000D01*
X104970000Y-104270000D02*
X106240000Y-104270000D01*
X106240000Y-104270000D02*
X106240000Y-105540000D01*
X106240000Y-105540000D02*
X124020000Y-105540000D01*
X124020000Y-105540000D02*
X124020000Y-104270000D01*
X89730000Y-96904000D02*
X112590000Y-96904000D01*
X112590000Y-96904000D02*
X112590000Y-96396000D01*
X112590000Y-96396000D02*
X89730000Y-96396000D01*
X139260000Y-96904000D02*
X116400000Y-96904000D01*
X116400000Y-96904000D02*
X116400000Y-96396000D01*
X116400000Y-96396000D02*
X139260000Y-96396000D01*
X104970000Y-61090000D02*
X104970000Y-59829500D01*
X104970000Y-59829500D02*
X124020000Y-59829500D01*
X124020000Y-59829500D02*
X124020000Y-61090000D01*
X136720000Y-106810000D02*
X124020000Y-106810000D01*
X124020000Y-106810000D02*
X124020000Y-108080000D01*
X124020000Y-108080000D02*
X104970000Y-108080000D01*
X104970000Y-108080000D02*
X104970000Y-106810000D01*
X136720000Y-61090000D02*
X124020000Y-61090000D01*
X92270000Y-106810000D02*
X104970000Y-106810000D01*
X92270000Y-106810000D02*
X92270000Y-108080000D01*
X92270000Y-108080000D02*
X89730000Y-108080000D01*
X89730000Y-108080000D02*
X89730000Y-85220000D01*
X89730000Y-59829500D02*
X92270000Y-59829500D01*
X92270000Y-59829500D02*
X92270000Y-61090000D01*
X92270000Y-61090000D02*
X104970000Y-61090000D01*
X139260000Y-108080000D02*
X136720000Y-108080000D01*
X136720000Y-108080000D02*
X136720000Y-106810000D01*
X139260000Y-108080000D02*
X139260000Y-85220000D01*
X139260000Y-59829500D02*
X136720000Y-59829500D01*
X136720000Y-59829500D02*
X136720000Y-61090000D01*
X124684000Y-65355000D02*
X123414000Y-65355000D01*
X105634000Y-69165000D02*
X123414000Y-69165000D01*
X123414000Y-69165000D02*
X123414000Y-67895000D01*
X105634000Y-64085000D02*
X105634000Y-65355000D01*
X105634000Y-69165000D02*
X123414000Y-69165000D01*
X123414000Y-64085000D02*
X105634000Y-64085000D01*
X124684000Y-67895000D02*
X124684000Y-65355000D01*
X123414000Y-69165000D02*
X123414000Y-67895000D01*
X123414000Y-65355000D02*
X123414000Y-64085000D01*
X105634000Y-65355000D02*
X105634000Y-69165000D01*
X124684000Y-67895000D02*
X124684000Y-65355000D01*
X105634000Y-64085000D02*
X105634000Y-65355000D01*
X124684000Y-65355000D02*
X123414000Y-65355000D01*
X123414000Y-64085000D02*
X105634000Y-64085000D01*
X123414000Y-67895000D02*
X124684000Y-67895000D01*
X123414000Y-67895000D02*
X124684000Y-67895000D01*
X105634000Y-65355000D02*
X105634000Y-69165000D01*
X123414000Y-65355000D02*
X123414000Y-64085000D01*
D11*
X166000000Y-104000000D02*
G75*
G03X166000000Y-104000000I-5000000J0D01*
G01*
X166000000Y-64000000D02*
G75*
G03X166000000Y-64000000I-5000000J0D01*
G01*
X86000000Y-104000000D02*
G75*
G03X86000000Y-104000000I-5000000J0D01*
G01*
X86000000Y-64000000D02*
G75*
G03X86000000Y-64000000I-5000000J0D01*
G01*
X104271428Y-103107142D02*
X103128571Y-103107142D01*
X103700000Y-103678571D02*
X103700000Y-102535714D01*
X125861428Y-90407142D02*
X124718571Y-90407142D01*
X125290000Y-90978571D02*
X125290000Y-89835714D01*
X104271428Y-79612142D02*
X103128571Y-79612142D01*
X103700000Y-80183571D02*
X103700000Y-79040714D01*
X104271428Y-90407142D02*
X103128571Y-90407142D01*
X125861428Y-79612142D02*
X124718571Y-79612142D01*
X125861428Y-103107142D02*
X124718571Y-103107142D01*
X87761428Y-90407142D02*
X86618571Y-90407142D01*
X87761428Y-103107142D02*
X86618571Y-103107142D01*
X87190000Y-103678571D02*
X87190000Y-102535714D01*
X104681428Y-66732142D02*
X103538571Y-66732142D01*
X126271428Y-66732142D02*
X125128571Y-66732142D01*
X125700000Y-67303571D02*
X125700000Y-66160714D01*
M02*
