M48
; DRILL file {KiCad 5.1.4+dfsg1-1} date Thu 23 Apr 2020 07:25:46 PM MDT
; FORMAT={-:-/ absolute / inch / decimal}
; #@! TF.CreationDate,2020-04-23T19:25:46-06:00
; #@! TF.GenerationSoftware,Kicad,Pcbnew,5.1.4+dfsg1-1
; #@! TF.FileFunction,Plated,1,2,PTH
FMAT,2
INCH
T1C0.0157
T2C0.0315
T3C0.0354
T4C0.0394
T5C0.0402
T6C0.0748
T7C0.0906
T8C0.1496
T9C0.1969
%
G90
G05
T1
X3.7382Y-3.5413
X3.7992Y-3.3465
X3.8957Y-3.5413
X4.2343Y-3.5413
X4.626Y-3.4843
X4.8622Y-4.1339
X5.0709Y-3.5315
X6.1909Y-4.0945
X6.2343Y-3.9902
X6.2343Y-4.1988
X6.3386Y-3.9469
X6.3386Y-4.2421
X6.4429Y-3.9902
X6.4429Y-4.1988
X6.4862Y-4.0945
X3.0413Y-4.0945
X3.0846Y-3.9902
X3.0846Y-4.1988
X3.189Y-3.9469
X3.189Y-4.2421
X3.2933Y-3.9902
X3.2933Y-4.1988
X3.3366Y-4.0945
X3.0413Y-2.5197
X3.0846Y-2.4154
X3.0846Y-2.624
X3.189Y-2.372
X3.189Y-2.6673
X3.2933Y-2.4154
X3.2933Y-2.624
X3.3366Y-2.5197
X6.1909Y-2.5197
X6.2343Y-2.4154
X6.2343Y-2.624
X6.3386Y-2.372
X6.3386Y-2.6673
X6.4429Y-2.4154
X6.4429Y-2.624
X6.4862Y-2.5197
T2
X3.2283Y-3.5236
X3.2283Y-3.7205
X5.2559Y-3.0512
X5.3543Y-3.0512
X4.4094Y-3.8583
X4.4094Y-4.2583
X3.9764Y-3.8386
X3.9764Y-4.0354
X3.8976Y-2.9921
X4.0945Y-2.9921
X3.8583Y-3.6614
X3.937Y-3.6614
X4.252Y-3.0906
X4.252Y-3.2874
X5.3543Y-3.563
X5.3543Y-3.6614
X5.2165Y-3.2677
X5.2165Y-3.6677
X4.4488Y-2.4016
X4.5669Y-2.4016
X4.685Y-2.4016
X3.4055Y-3.5173
X3.4055Y-3.9173
X4.3701Y-2.6575
X4.4488Y-2.6575
X3.7402Y-3.9567
X3.8189Y-3.9567
X3.7008Y-3.4795
X3.7008Y-3.7795
X5.0787Y-2.7362
X5.1575Y-2.7362
X3.7205Y-2.9134
X3.7205Y-3.3134
X3.9173Y-3.2087
X4.0173Y-3.2087
X4.1173Y-3.2087
X3.8189Y-3.4449
X4.0157Y-3.4449
X5.0787Y-2.9331
X5.0787Y-3.1299
X3.5827Y-4.2126
X3.7008Y-4.2126
X3.8189Y-4.2126
X4.2717Y-3.4055
X4.2717Y-3.8055
X4.6457Y-3.7992
X4.6457Y-3.8976
X4.6457Y-2.7362
X4.6457Y-2.8362
X4.6457Y-2.9362
X4.6457Y-3.0362
X4.9457Y-2.7362
X4.9457Y-2.8362
X4.9457Y-2.9362
X4.9457Y-3.0362
X4.5803Y-2.5984
X4.9803Y-2.5984
X4.2126Y-2.5921
X4.2126Y-2.9921
X4.1339Y-3.3992
X4.1339Y-3.7992
X4.4094Y-3.3402
X4.4094Y-3.7402
T3
X4.1535Y-3.937
X4.2535Y-3.937
T4
X3.6614Y-2.4803
X3.7598Y-2.4803
X3.8583Y-2.4803
X3.563Y-3.4449
X3.4252Y-3.2677
X5.6693Y-3.1496
X5.6693Y-3.5433
X4.4094Y-3.2087
X4.5472Y-3.6024
T5
X3.5827Y-3.5748
X3.5827Y-4.0551
T6
X3.1181Y-3.1181
X3.1181Y-3.4173
T7
X3.563Y-2.6102
X3.9567Y-2.6102
T9
X3.189Y-4.0945
X3.189Y-2.5197
X6.3386Y-2.5197
X6.3386Y-4.0945
T2
G00X4.3209Y-2.4311
M15
G01X4.3209Y-2.372
M16
G05
G00X4.813Y-2.4311
M15
G01X4.813Y-2.372
M16
G05
G00X3.4547Y-4.1831
M15
G01X3.4547Y-4.2421
M16
G05
G00X3.9469Y-4.1831
M15
G01X3.9469Y-4.2421
M16
G05
T8
G00X4.6654Y-4.1929
M15
G01X4.7441Y-4.1929
M16
G05
G00X5.315Y-4.1929
M15
G01X5.3937Y-4.1929
M16
G05
T0
M30
