M48
; DRILL file {KiCad 5.1.5-52549c5~84~ubuntu18.04.1} date Thu 26 Mar 2020 10:12:01 PM MDT
; FORMAT={-:-/ absolute / inch / decimal}
; #@! TF.CreationDate,2020-03-26T22:12:01-06:00
; #@! TF.GenerationSoftware,Kicad,Pcbnew,5.1.5-52549c5~84~ubuntu18.04.1
; #@! TF.FileFunction,Plated,1,2,PTH
FMAT,2
INCH
T1C0.0157
T2C0.0276
T3C0.0315
T4C0.0354
T5C0.0394
T6C0.0433
T7C0.0472
T8C0.0512
T9C0.0748
T10C0.0906
T11C0.0945
T12C0.1417
T13C0.1969
%
G90
G05
T1
X5.1181Y-4.0157
X5.3169Y-4.0945
X5.5315Y-2.7953
X5.6299Y-2.9724
X4.2224Y-1.7126
X4.2657Y-1.6083
X4.2657Y-1.8169
X4.3701Y-1.565
X4.3701Y-1.8602
X4.4744Y-1.6083
X4.4744Y-1.8169
X4.5177Y-1.7126
X6.6634Y-1.7126
X6.7067Y-1.6083
X6.7067Y-1.8169
X6.811Y-1.565
X6.811Y-1.8602
X6.9154Y-1.6083
X6.9154Y-1.8169
X6.9587Y-1.7126
X4.2224Y-4.3504
X4.2657Y-4.2461
X4.2657Y-4.4547
X4.3701Y-4.2028
X4.3701Y-4.498
X4.4744Y-4.2461
X4.4744Y-4.4547
X4.5177Y-4.3504
X6.6634Y-4.3504
X6.7067Y-4.2461
X6.7067Y-4.4547
X6.811Y-4.2028
X6.811Y-4.498
X6.9154Y-4.2461
X6.9154Y-4.4547
X6.9587Y-4.3504
T2
X5.7087Y-2.615
X5.7087Y-2.815
X5.8087Y-2.715
T3
X4.685Y-4.1142
X4.685Y-4.5142
X5.9252Y-2.126
X6.2252Y-2.126
X5.9252Y-2.9724
X5.9252Y-3.1693
X4.7835Y-3.2283
X5.1835Y-3.2283
X4.3307Y-3.1299
X4.3307Y-3.2299
X4.3307Y-3.3299
X4.3307Y-3.4299
X4.6307Y-3.1299
X4.6307Y-3.2299
X4.6307Y-3.3299
X4.6307Y-3.4299
X6.0236Y-1.5945
X6.1417Y-1.5945
X6.2598Y-1.5945
X6.5354Y-2.9134
X6.6142Y-2.9134
X6.0827Y-2.7756
X6.0827Y-2.8756
X6.0827Y-2.9756
X6.0827Y-3.0756
X6.3827Y-2.7756
X6.3827Y-2.8756
X6.3827Y-2.9756
X6.3827Y-3.0756
X4.7835Y-3.0906
X5.1835Y-3.0906
X4.8819Y-2.6378
X4.9803Y-2.6378
X6.6142Y-2.5197
X6.6929Y-2.5197
X5.4528Y-2.0213
X5.4528Y-2.4213
X6.1417Y-4.4685
X6.2598Y-4.4685
X6.378Y-4.4685
X5.5906Y-2.1063
X5.5906Y-2.3031
X6.811Y-3.3268
X6.9094Y-3.3268
X4.685Y-1.6929
X4.7638Y-1.6929
X5.7283Y-2.2835
X6.1283Y-2.2835
X5.5646Y-2.4409
X5.9646Y-2.4409
X6.2402Y-2.2835
X6.437Y-2.2835
X6.5748Y-2.7165
X6.9748Y-2.7165
X6.5157Y-3.1102
X6.9157Y-3.1102
X6.4173Y-1.8307
X6.4961Y-1.8307
X4.7772Y-3.563
X5.1772Y-3.563
X4.3504Y-3.6024
X4.5472Y-3.6024
X6.0567Y-2.5787
X6.4567Y-2.5787
X4.7835Y-2.2835
X4.9803Y-2.2835
X5.7283Y-1.9685
X5.7283Y-2.1654
X6.0236Y-1.8504
X6.2205Y-1.8504
X6.811Y-2.9724
X6.9094Y-2.9724
X6.063Y-2.4409
X6.463Y-2.4409
X4.3701Y-3.9173
X4.3701Y-4.0157
X5.9252Y-1.9882
X6.3252Y-1.9882
X4.7835Y-3.4252
X5.1835Y-3.4252
T4
X4.8622Y-4.0945
X4.9622Y-4.0945
T5
X5.1772Y-2.6969
X5.4134Y-2.5591
X5.374Y-1.6732
X5.4724Y-1.6732
X5.5709Y-1.6732
X6.1811Y-3.3268
X6.5748Y-3.3268
X4.9213Y-1.5551
X5.8858Y-1.811
X6.3583Y-2.1457
X6.5551Y-2.1654
T6
X4.6819Y-1.9488
X4.7819Y-1.9488
X4.8819Y-1.9488
X4.2953Y-2.5787
X4.626Y-2.5787
X4.8575Y-2.8937
X5.1575Y-2.8937
T7
X5.2067Y-3.7795
X5.2067Y-4.4882
X5.7382Y-3.7795
X5.7382Y-4.4882
T8
X3.7008Y-1.6098
X3.7008Y-4.4531
T9
X6.8622Y-2.0157
X6.8622Y-2.315
T10
X5.2756Y-1.8031
X5.6693Y-1.8031
T11
X4.0157Y-1.6098
T12
X3.3858Y-1.9449
X4.0157Y-4.1181
T13
X4.3701Y-1.7126
X6.811Y-1.7126
X4.3701Y-4.3504
X6.811Y-4.3504
T3
G00X5.8957Y-1.624
M15
G01X5.8957Y-1.565
M16
G05
G00X6.3878Y-1.624
M15
G01X6.3878Y-1.565
M16
G05
G00X6.0138Y-4.439
M15
G01X6.0138Y-4.498
M16
G05
G00X6.5059Y-4.439
M15
G01X6.5059Y-4.498
M16
G05
T0
M30
